<?xml version="1.0" encoding="UTF-8"?><svg id="Layer_1" xmlns="http://www.w3.org/2000/svg" viewBox="0 0 500 463.95"><defs><style>.cls-1,.cls-2{fill:#000;stroke-width:0px;}.cls-2{fill-rule:evenodd;}</style></defs><path class="cls-1" d="M315.08,0l-128.23,137.14,9.92,12.26,109.55-95.37,88.39,216.79,29.49,1.7L315.08,0Z"/><rect class="cls-1" x="99.89" y="348.54" width="50.04" height="110.06" transform="translate(-141.46 75.67) rotate(-21.89)"/><rect class="cls-1" x="13.44" y="260.81" width="41.46" height="80.04" transform="translate(-109.7 34.43) rotate(-21.89)"/><path class="cls-2" d="M17.1,220.42l199.25-80.1,60.39,150.13-199.25,80.1L17.1,220.42ZM34.27,227.73l174.76-70.26,50.56,125.66-174.77,70.26-50.55-125.66Z"/><path class="cls-2" d="M412.22,301.68l-148.61-8.55-58.6-145.66,101.32-109.03,105.89,263.23ZM392.23,287.32l-119.51-6.87-52.35-130.13,81.47-87.68,90.39,224.68Z"/><path class="cls-1" d="M473.78,116.16l6.11-2.46,4.92,12.23-6.12,2.46-64.99,26.13-6.11,2.46-4.92-12.24,6.12-2.46,64.99-26.12Z"/><path class="cls-1" d="M492.82,203.63l6.59-.3.58,13.17-6.58.29-56.01,2.49-6.59.3-.58-13.17,6.58-.3,56.01-2.48Z"/><path class="cls-1" d="M423.17,42.17l4.96-4.35,8.7,9.91-4.96,4.35-42.15,36.96-4.96,4.35-8.69-9.91,4.96-4.35,42.14-36.96Z"/><path class="cls-1" d="M47.67,188.92l187-75.18-8.98,14.65-11.34,23.3-156.37,62.87-10.31-25.63Z"/></svg>