
        <svg xmlns="http://www.w3.org/2000/svg" xmlns:xlink="http://www.w3.org/1999/xlink" version="1.1" width="3147.783251231527" height="798.0295566502463" viewBox="0 0 3147.783251231527 798.0295566502463">
			
			<g transform="scale(7.389162561576355) translate(10, 10)">
				<defs id="SvgjsDefs1034"/><g id="SvgjsG1035" featureKey="symbolFeature-0" transform="matrix(0.20245595483215556,0,0,0.20245595483215556,-6.407788430166115,-7.073468799565195)" fill="#000"><path xmlns="http://www.w3.org/2000/svg" d=" M 318.333 44.817 L 201.662 169.639 L 210.69 180.802 L 310.37 94 L 390.798 291.314 L 417.626 292.858 L 318.333 44.817 Z "/><rect xmlns="http://www.w3.org/2000/svg" x="122.53" y="362.155" width="45.523" height="100.152" transform="matrix(-0.928,0.373,-0.373,-0.928,433.898,740.484)"/><rect xmlns="http://www.w3.org/2000/svg" x="43.897" y="282.131" width="37.719" height="72.838" transform="matrix(0.928,-0.373,0.373,0.928,-114.321,46.418)"/><path xmlns="http://www.w3.org/2000/svg" d=" M 47.21 245.43 L 228.5 172.53 L 283.45 309.17 L 102.16 382.07 L 47.21 245.43 Z  M 62.83 252.09 L 221.84 188.14 L 267.84 302.51 L 108.82 366.46 L 62.83 252.09 Z " fill-rule="evenodd"/><path xmlns="http://www.w3.org/2000/svg" d=" M 406.72 319.39 L 271.5 311.61 L 218.18 179.04 L 310.37 79.81 L 406.72 319.39 Z  M 388.53 306.32 L 279.79 300.07 L 232.16 181.63 L 306.29 101.83 L 388.53 306.32 Z " fill-rule="evenodd"/><path xmlns="http://www.w3.org/2000/svg" d=" M 462.73 150.54 L 468.29 148.3 L 472.77 159.43 L 467.2 161.67 L 408.07 185.45 L 402.51 187.69 L 398.03 176.55 L 403.6 174.31 L 462.73 150.54 Z "/><path xmlns="http://www.w3.org/2000/svg" d=" M 480.06 230.15 L 486.06 229.88 L 486.59 241.87 L 480.6 242.13 L 429.64 244.4 L 423.64 244.67 L 423.11 232.68 L 429.1 232.41 L 480.06 230.15 Z "/><path xmlns="http://www.w3.org/2000/svg" d=" M 416.68 83.2 L 421.19 79.24 L 429.11 88.26 L 424.6 92.22 L 386.25 125.86 L 381.74 129.82 L 373.83 120.8 L 378.34 116.84 L 416.68 83.2 Z "/><path xmlns="http://www.w3.org/2000/svg" d=" M 75.02 216.762 L 245.171 148.336 L 237 161.67 L 226.682 182.875 L 84.402 240.093 L 75.02 216.762 Z "/></g><g id="SvgjsG1036" featureKey="textGroupContainer" transform="matrix(1,0,0,1,405,0)" fill="#000"><rect xmlns="http://www.w3.org/2000/svg" y="0" height="1" width="1" opacity="0"/><rect xmlns="http://www.w3.org/2000/svg" y="0" x="-293" width="3" height="88"/></g><g id="SvgjsG1037" featureKey="vMvB0T-0" transform="matrix(3.1004416433749165,0,0,3.1004416433749165,130.12401606905675,3.335335452396105)" fill="#000"><path d="M6.56 9.72 l1.34 -3.38 q0.52 -0.12 1.34 -0.12 q0.88 0 1.52 0.24 l0.14 0.16 l-3.88 9.18 l0 4.2 q-0.62 0.12 -1.6 0.12 t-1.6 -0.12 l0 -4.28 l-3.86 -9 q0.92 -0.54 1.76 -0.54 t1.21 0.29 t0.65 0.99 l0.96 2.38 q0.52 1.28 0.9 2.86 l0.12 0 q0.32 -1.26 1 -2.98 z M15.02 16.28 q0.54 1.56 2.18 1.56 q0.82 0 1.33 -0.41 t0.8 -1.04 t0.39 -1.41 t0.1 -1.54 q0 -0.7 -0.05 -1.56 t-0.29 -1.61 t-0.76 -1.26 t-1.52 -0.51 q-0.96 0 -1.47 0.49 t-0.76 1.21 t-0.31 1.53 t-0.06 1.43 q0 0.92 0.09 1.64 t0.33 1.48 z M13.399999999999999 19.04 q-2.14 -1.78 -2.14 -5.86 q0 -1.76 0.41 -3.09 t1.18 -2.23 t1.87 -1.36 t2.48 -0.46 t2.49 0.46 t1.88 1.37 t1.18 2.24 t0.41 3.07 t-0.41 3.07 t-1.18 2.23 t-1.88 1.36 t-2.49 0.46 q-2.28 0 -3.8 -1.26 z M36.019999999999996 6.34 l0 8.62 q0 2.56 -1.4 3.95 t-4 1.39 t-4.01 -1.39 t-1.41 -3.95 l0 -8.62 l0.14 -0.14 l1.18 0 q1.9 0 1.9 2.04 l0 6.76 q0 1.4 0.5 2.08 t1.7 0.68 t1.7 -0.68 t0.5 -2.08 l0 -8.66 q0.62 -0.12 1.6 -0.12 q0.96 0 1.6 0.12 z M43.68000000000001 17.32 l2.62 -10.98 q0.48 -0.12 1.24 -0.12 q1.04 0 1.64 0.22 l0.12 0.16 l-3.74 13.4 q-1.14 0.12 -2.29 0.12 t-1.66 -0.29 t-0.77 -1.15 l-3.32 -12.06 q1.08 -0.46 1.78 -0.46 q0.84 0 1.24 0.38 t0.62 1.2 l1.54 5.7 q0.36 1.34 0.76 3.64 q0.04 0.24 0.22 0.24 z M54.120000000000005 15.96 l-0.02 1.44 l0 0.02 q0.92 -0.04 1.48 -0.04 l4.64 0 q0 0.74 -0.06 1.14 q-0.24 1.54 -2.04 1.54 l-5.32 0 q-0.86 0 -1.35 -0.5 t-0.49 -1.36 l0 -11.72 l0.14 -0.14 l8.62 0 q0.12 0.58 0.12 1.26 t-0.28 1.42 l-5.46 0 l0.02 1.44 l0 1.4 q0.52 -0.02 1.36 -0.02 l3.06 0 q0.18 0.56 0.18 1.28 t-0.18 1.32 l-4.42 0 l0 1.52 z M69.38000000000001 11.78 l0 -0.24 q0 -2.96 -2.2 -2.96 q-1.26 0 -1.82 1.15 t-0.56 3.39 q0 2.22 0.7 3.3 t2.04 1.08 q0.7 0 1.55 -0.33 t1.85 -1.05 q0.5 0.34 0.93 0.93 t0.53 1.13 q-0.46 0.44 -1.07 0.83 t-1.32 0.67 t-1.48 0.45 t-1.55 0.17 q-1.54 0 -2.6 -0.59 t-1.71 -1.57 t-0.94 -2.26 t-0.29 -2.66 q0 -1.8 0.45 -3.15 t1.22 -2.25 t1.81 -1.35 t2.22 -0.45 q1.2 0 2.18 0.32 t1.67 0.88 t1.06 1.32 t0.37 1.64 q0 1.78 -1.82 1.78 q-0.54 0 -1.22 -0.18 z M79.60000000000001 8.98 l0.02 1.48 l0 9.54 q-0.68 0.12 -1.62 0.12 t-1.58 -0.12 l0 -11.02 l-1.28 0.02 l-2.06 0 q-0.12 -0.58 -0.12 -1.33 t0.12 -1.33 l9.9 0 q0.16 0.52 0.16 1.26 t-0.4 1.07 t-1.28 0.33 l-0.58 0 l-1.26 -0.02 l-0.02 0 z"/></g>
			</g>
		</svg>
	