<?xml version="1.0" encoding="UTF-8"?><svg id="Layer_1" xmlns="http://www.w3.org/2000/svg" viewBox="0 0 2866 650"><defs><style>.cls-1,.cls-2{fill:#000;stroke-width:0px;}.cls-2{fill-rule:evenodd;}</style></defs><path class="cls-1" d="M428.84,14.77l-174.52,186.66,13.5,16.69,149.11-129.8,120.31,295.07,40.13,2.31L428.84,14.77Z"/><rect class="cls-1" x="135.96" y="489.15" width="68.1" height="149.8" transform="translate(-198.05 104.06) rotate(-21.89)"/><rect class="cls-1" x="18.29" y="369.76" width="56.43" height="108.94" transform="translate(-154.82 47.93) rotate(-21.89)"/><path class="cls-2" d="M23.28,314.77l271.19-109.02,82.2,204.33-271.19,109.02L23.28,314.77ZM46.64,324.73l237.86-95.63,68.81,171.03-237.87,95.63-68.79-171.03Z"/><path class="cls-2" d="M561.05,425.37l-202.27-11.63-79.76-198.25,137.9-148.39,144.13,358.27ZM533.84,405.83l-162.66-9.35-71.25-177.12,110.89-119.33,123.02,305.8Z"/><path class="cls-1" d="M644.84,172.87l8.32-3.35,6.7,16.64-8.33,3.35-88.45,35.56-8.32,3.35-6.7-16.66,8.33-3.35,88.45-35.55Z"/><path class="cls-1" d="M670.76,291.92l8.98-.4.79,17.93-8.96.39-76.23,3.39-8.98.4-.79-17.93,8.96-.4,76.23-3.38Z"/><path class="cls-1" d="M575.95,72.17l6.75-5.92,11.85,13.49-6.75,5.92-57.37,50.31-6.75,5.92-11.83-13.49,6.75-5.92,57.35-50.31Z"/><path class="cls-1" d="M64.88,271.9l254.52-102.33-12.22,19.94-15.43,31.71-212.83,85.56-14.03-34.89Z"/><rect class="cls-1" x="827.52" width="22.17" height="650"/><path class="cls-1" d="M1111.71,247.23l30.7-77.41c7.94-1.83,18.17-2.75,30.7-2.75,13.44,0,25.05,1.83,34.82,5.5l3.21,3.66-88.88,210.23v96.18c-9.47,1.83-21.69,2.75-36.65,2.75s-27.18-.92-36.65-2.75v-98.02l-88.42-206.11c14.05-8.24,27.49-12.37,40.32-12.37,12.83,0,22.07,2.21,27.72,6.64s10.61,11.98,14.89,22.67l21.99,54.5c7.94,19.54,14.81,41.37,20.62,65.5h2.75c4.89-19.24,12.52-41.99,22.91-68.24h0ZM1305.51,397.46c8.25,23.82,24.89,35.73,49.94,35.73,12.52,0,22.68-3.13,30.47-9.39s13.9-14.2,18.33-23.82c4.43-9.62,7.41-20.38,8.93-32.29,1.53-11.91,2.29-23.66,2.29-35.27,0-10.69-.38-22.6-1.15-35.73-.76-13.13-2.98-25.42-6.64-36.87-3.67-11.45-9.47-21.07-17.41-28.86-7.94-7.79-19.55-11.68-34.82-11.68s-25.89,3.74-33.67,11.22c-7.79,7.48-13.59,16.72-17.41,27.71s-6.19,22.67-7.1,35.04c-.92,12.37-1.37,23.28-1.37,32.75,0,14.05.69,26.57,2.06,37.56,1.37,10.99,3.89,22.29,7.56,33.89h0ZM1268.4,460.67c-32.68-27.18-49.02-71.91-49.02-134.2,0-26.87,3.13-50.46,9.39-70.76,6.26-20.31,15.27-37.33,27.03-51.07,11.76-13.74,26.04-24.12,42.84-31.15,16.8-7.02,35.74-10.53,56.81-10.53,21.08,0,40.09,3.51,57.04,10.53,16.95,7.02,31.31,17.48,43.07,31.37,11.76,13.89,20.77,30.99,27.03,51.3,6.26,20.31,9.39,43.74,9.39,70.31,0,26.57-3.13,50-9.39,70.31-6.26,20.31-15.27,37.33-27.03,51.07-11.76,13.74-26.12,24.12-43.07,31.15-16.95,7.02-35.97,10.53-57.04,10.53-34.82,0-63.84-9.62-87.05-28.86h0ZM1786.58,169.83v197.41c0,39.08-10.69,69.24-32.07,90.46-21.38,21.22-51.92,31.83-91.63,31.83s-70.33-10.61-91.86-31.83c-21.53-21.22-32.3-51.37-32.3-90.46v-197.41l3.21-3.21h27.03c29.02,0,43.53,15.57,43.53,46.72v154.81c0,21.37,3.82,37.25,11.45,47.63,7.64,10.38,20.62,15.57,38.94,15.57s31.31-5.19,38.94-15.57c7.64-10.38,11.45-26.26,11.45-47.63v-198.32c9.47-1.83,21.69-2.75,36.65-2.75,14.66,0,26.88.92,36.65,2.75h0ZM1962.05,421.28l60.02-251.45c7.33-1.83,16.8-2.75,28.41-2.75,15.88,0,28.41,1.68,37.57,5.04l2.75,3.66-85.68,306.87c-17.41,1.83-34.9,2.75-52.46,2.75s-30.24-2.21-38.03-6.64c-7.79-4.43-13.67-13.21-17.64-26.34l-76.05-276.19c16.49-7.02,30.09-10.53,40.78-10.53,12.83,0,22.3,2.9,28.41,8.7,6.11,5.8,10.84,14.96,14.2,27.48l35.28,130.54c5.5,20.46,11.3,48.24,17.41,83.36.61,3.66,2.29,5.5,5.04,5.5h0ZM2201.21,390.14l-.46,32.98v.46c14.05-.61,25.35-.92,33.9-.92h106.29c0,11.3-.46,20-1.37,26.11-3.67,23.51-19.24,35.27-46.73,35.27h-121.87c-13.13,0-23.44-3.82-30.93-11.45-7.48-7.63-11.22-18.02-11.22-31.15V173.03l3.21-3.21h197.47c1.83,8.86,2.75,18.47,2.75,28.86s-2.14,21.22-6.41,32.52h-125.08l.46,32.98v32.06c7.94-.31,18.33-.46,31.15-.46h70.1c2.75,8.55,4.12,18.32,4.12,29.31s-1.37,21.07-4.12,30.23h-101.25v34.81h0ZM2550.79,294.41v-5.5c0-45.19-16.8-67.79-50.4-67.79-19.24,0-33.14,8.78-41.69,26.34-8.55,17.56-12.83,43.44-12.83,77.63s5.35,59.08,16.04,75.57c10.69,16.49,26.27,24.73,46.73,24.73,10.69,0,22.53-2.52,35.51-7.56,12.98-5.04,27.11-13.05,42.38-24.05,7.64,5.19,14.74,12.29,21.3,21.3,6.57,9.01,10.61,17.63,12.14,25.88-7.03,6.72-15.2,13.05-24.51,19.01-9.32,5.95-19.4,11.07-30.24,15.34-10.84,4.27-22.14,7.71-33.9,10.31-11.76,2.6-23.6,3.89-35.51,3.89-23.52,0-43.37-4.5-59.56-13.51-16.19-9.01-29.25-20.99-39.17-35.95-9.93-14.96-17.1-32.21-21.53-51.76-4.43-19.54-6.64-39.85-6.64-60.92,0-27.48,3.44-51.53,10.31-72.14,6.87-20.61,16.19-37.79,27.95-51.53,11.76-13.74,25.58-24.05,41.46-30.92,15.88-6.87,32.83-10.31,50.86-10.31,18.33,0,34.97,2.44,49.94,7.33,14.97,4.89,27.72,11.6,38.26,20.15,10.54,8.55,18.63,18.63,24.28,30.23,5.65,11.6,8.48,24.12,8.48,37.56,0,27.18-13.9,40.76-41.69,40.76-8.25,0-17.56-1.37-27.95-4.12h0ZM2784.91,230.29l.46,33.89v218.48c-10.38,1.83-22.76,2.75-37.11,2.75s-26.42-.92-36.19-2.75v-252.37l-29.32.46h-47.19c-1.83-8.86-2.75-19.01-2.75-30.46s.92-21.6,2.75-30.46h226.79c2.44,7.94,3.67,17.56,3.67,28.86s-3.05,19.47-9.16,24.5c-6.11,5.04-15.88,7.56-29.32,7.56h-13.29l-28.86-.46h-.46Z"/></svg>